<?xml version="1.0" encoding="utf-8"?>
<svg xmlns="http://www.w3.org/2000/svg" viewBox="0 0 24 24" width="20" height="20">
  <path d="M5.984375 1.9863281 A 1.0001 1.0001 0 0 0 5 3L5 8C5 9.6454545 6.3545455 11 8 11L8 21 A 1.0001 1.0001 0 1 0 10 21L10 11C11.645455 11 13 9.6454545 13 8L13 3 A 1.0001 1.0001 0 1 0 11 3L11 7C11 7.3 10.8 7.5 10.5 7.5C10.2 7.5 10 7.3 10 7L10 3 A 1.0001 1.0001 0 0 0 8.984375 1.9863281 A 1.0001 1.0001 0 0 0 8 3L8 7C8 7.3 7.8 7.5 7.5 7.5C7.2 7.5 7 7.3 7 7L7 3 A 1.0001 1.0001 0 0 0 5.984375 1.9863281 z M 15.5 2C15.224 2 15 2.224 15 2.5L15 15L15 21 A 1.0001 1.0001 0 1 0 17 21L17 15L18 15C18.552 15 19 14.552 19 14L19 11C19 8.877 18.999688 5.2643594 16.304688 2.3183594C16.116688 2.1123594 15.8405 2 15.5625 2L15.5 2 z" fill="#888883" />
</svg>