<?xml version="1.0" encoding="utf-8"?>
<svg xmlns="http://www.w3.org/2000/svg" viewBox="0 0 24 24" width="48" height="48">
  <path d="M8.984375 3.9863281 A 1.0001 1.0001 0 0 0 8 5L8 9 A 1.0001 1.0001 0 1 0 10 9L10 5 A 1.0001 1.0001 0 0 0 8.984375 3.9863281 z M 4.984375 4.9863281 A 1.0001 1.0001 0 0 0 4 6L4 9 A 1.0001 1.0001 0 1 0 6 9L6 6 A 1.0001 1.0001 0 0 0 4.984375 4.9863281 z M 12.984375 4.9863281 A 1.0001 1.0001 0 0 0 12 6L12 9 A 1.0001 1.0001 0 1 0 14 9L14 6 A 1.0001 1.0001 0 0 0 12.984375 4.9863281 z M 22.998047 9L18.523438 9.0078125C17.583437 9.0098125 16.771266 9.6669375 16.572266 10.585938L16.265625 12L0.62109375 12C0.22909375 12 -0.063328125 12.359141 0.013671875 12.744141L0.94335938 17.392578C1.1273594 18.323578 1.9522969 19 2.9042969 19L15.181641 19C16.130641 19 16.953672 18.324203 17.138672 17.408203L18.527344 11L23.001953 11C23.553953 10.999 23.999047 10.552 23.998047 10C23.998047 9.448 23.551047 8.999 22.998047 9 z" fill="#DBDCDD" />
</svg>